<svg version="1.1" xmlns="http://www.w3.org/2000/svg" xmlns:xlink="http://www.w3.org/1999/xlink" width="1033.5" height="635"><defs/><g><g transform="translate(-70,-30) scale(1,1)"><path fill="none" stroke="#000000" d="M 184 40 L 911 40 L 911 655 L 184 655 L 184 40" stroke-miterlimit="10"/></g><g transform="translate(-70,-30) scale(1,1)"><path fill="#ffffff" stroke="none" d="M 184 40 L 184 62 L 200 62 L 211 51 L 211 40 L 184 40"/></g><g transform="translate(-70,-30) scale(1,1)"><path fill="none" stroke="#000000" d="M 184 40 L 184 62 L 200 62 L 211 51 L 211 40 L 184 40 L 184 40" stroke-miterlimit="10"/></g><g transform="translate(-70,-30) scale(1,1)"><g><path fill="none" stroke="none"/><text fill="#000000" stroke="none" font-family="Arial" font-size="13px" font-style="normal" font-weight="normal" text-decoration="none" x="195" y="57.5"></text></g></g><g transform="translate(-70,-30) scale(1,1)"><g><path fill="none" stroke="none"/><text fill="#000000" stroke="none" font-family="Arial" font-size="13px" font-style="normal" font-weight="bold" text-decoration="none" x="189" y="57.5"></text></g></g><g transform="translate(-70,-30) scale(1,1)"><path fill="none" stroke="#000000" d="M 976 536 L 1093.5 536 L 1093.5 588 L 976 588 L 976 536" stroke-miterlimit="10"/></g><g transform="translate(-70,-30) scale(1,1)"><path fill="#ffffff" stroke="none" d="M 976 536 L 976 558 L 1076 558 L 1087 547 L 1087 536 L 976 536"/></g><g transform="translate(-70,-30) scale(1,1)"><path fill="none" stroke="#000000" d="M 976 536 L 976 558 L 1076 558 L 1087 547 L 1087 536 L 976 536 L 976 536" stroke-miterlimit="10"/></g><g transform="translate(-70,-30) scale(1,1)"><g><path fill="none" stroke="none"/><text fill="#000000" stroke="none" font-family="Arial" font-size="13px" font-style="normal" font-weight="normal" text-decoration="none" x="987" y="553.5">Tweet Scraper</text></g></g><g transform="translate(-70,-30) scale(1,1)"><g><path fill="none" stroke="none"/><text fill="#000000" stroke="none" font-family="Arial" font-size="13px" font-style="normal" font-weight="bold" text-decoration="none" x="981" y="553.5"></text></g></g><g transform="translate(-70,-30) scale(1,1)"><path fill="none" stroke="#000000" d="M 976 160 L 1092.5 160 L 1092.5 212 L 976 212 L 976 160" stroke-miterlimit="10"/></g><g transform="translate(-70,-30) scale(1,1)"><path fill="#ffffff" stroke="none" d="M 976 160 L 976 182 L 1075 182 L 1086 171 L 1086 160 L 976 160"/></g><g transform="translate(-70,-30) scale(1,1)"><path fill="none" stroke="#000000" d="M 976 160 L 976 182 L 1075 182 L 1086 171 L 1086 160 L 976 160 L 976 160" stroke-miterlimit="10"/></g><g transform="translate(-70,-30) scale(1,1)"><g><path fill="none" stroke="none"/><text fill="#000000" stroke="none" font-family="Arial" font-size="13px" font-style="normal" font-weight="normal" text-decoration="none" x="987" y="177.5">Tweet Service</text></g></g><g transform="translate(-70,-30) scale(1,1)"><g><path fill="none" stroke="none"/><text fill="#000000" stroke="none" font-family="Arial" font-size="13px" font-style="normal" font-weight="bold" text-decoration="none" x="981" y="177.5"></text></g></g><g transform="translate(-70,-30) scale(1,1)"><path fill="#ffffff" stroke="none" d="M 98.82072727272727 217.68 C 98.82072727272727 212.886167936 102.70656959767273 209 107.5 209 C 112.29343040232727 209 116.17927272727273 212.886167936 116.17927272727273 217.68 C 116.17927272727273 222.47383206400002 112.29343040232727 226.36 107.5 226.36 C 102.70656959767273 226.36 98.82072727272727 222.47383206400002 98.82072727272727 217.68 Z"/></g><g transform="translate(-70,-30) scale(1,1)"><path fill="none" stroke="#000000" d="M 98.82072727272727 217.68 C 98.82072727272727 212.886167936 102.70656959767273 209 107.5 209 C 112.29343040232727 209 116.17927272727273 212.886167936 116.17927272727273 217.68 C 116.17927272727273 222.47383206400002 112.29343040232727 226.36 107.5 226.36 C 102.70656959767273 226.36 98.82072727272727 222.47383206400002 98.82072727272727 217.68 Z" stroke-miterlimit="10"/></g><g transform="translate(-70,-30) scale(1,1)"><path fill="none" stroke="#000000" d="M 107.5 226.36 L 107.5 243.64" stroke-miterlimit="10"/></g><g transform="translate(-70,-30) scale(1,1)"><path fill="none" stroke="#000000" d="M 98.31018181818182 232.84 L 116.68981818181818 232.84" stroke-miterlimit="10"/></g><g transform="translate(-70,-30) scale(1,1)"><path fill="none" stroke="#000000" d="M 107.5 243.64 L 94.73636363636363 261" stroke-miterlimit="10"/></g><g transform="translate(-70,-30) scale(1,1)"><path fill="none" stroke="#000000" d="M 107.5 243.64 L 120.26363636363637 261" stroke-miterlimit="10"/></g><g transform="translate(-70,-30) scale(1,1)"><g><path fill="none" stroke="none"/><text fill="#000000" stroke="none" font-family="Arial" font-size="13px" font-style="normal" font-weight="bold" text-decoration="none" x="86" y="281.5">Macron</text></g></g><g transform="translate(-70,-30) scale(1,1)"><path fill="#C0C0C0" stroke="none" d="M 399 120 C 399 110.6111584 499.9597776 103 624.5 103 C 749.0402224 103 850 110.6111584 850 120 C 850 129.3888416 749.0402224 137 624.5 137 C 499.9597776 137 399 129.3888416 399 120 Z" opacity="0.2"/></g><g transform="translate(-70,-30) scale(1,1)"><path fill="#ffffff" stroke="none" d="M 392 113 C 392 103.6111584 492.9597776 96 617.5 96 C 742.0402224 96 843 103.6111584 843 113 C 843 122.3888416 742.0402224 130 617.5 130 C 492.9597776 130 392 122.3888416 392 113 Z"/></g><g transform="translate(-70,-30) scale(1,1)"><path fill="none" stroke="#000000" d="M 392 113 C 392 103.6111584 492.9597776 96 617.5 96 C 742.0402224 96 843 103.6111584 843 113 C 843 122.3888416 742.0402224 130 617.5 130 C 492.9597776 130 392 122.3888416 392 113 Z" stroke-miterlimit="10"/></g><g transform="translate(-70,-30) scale(1,1)"><g><path fill="none" stroke="none"/><text fill="#000000" stroke="none" font-family="Arial" font-size="13px" font-style="normal" font-weight="bold" text-decoration="none" x="472.5" y="120">Consulter les tweets contenant un mot specififque</text></g></g><g transform="translate(-70,-30) scale(1,1)"><path fill="#C0C0C0" stroke="none" d="M 271 256 C 271 246.6111584 323.1588208 239 387.5 239 C 451.8411792 239 504 246.6111584 504 256 C 504 265.3888416 451.8411792 273 387.5 273 C 323.1588208 273 271 265.3888416 271 256 Z" opacity="0.2"/></g><g transform="translate(-70,-30) scale(1,1)"><path fill="#ffffff" stroke="none" d="M 264 249 C 264 239.6111584 316.1588208 232 380.5 232 C 444.8411792 232 497 239.6111584 497 249 C 497 258.3888416 444.8411792 266 380.5 266 C 316.1588208 266 264 258.3888416 264 249 Z"/></g><g transform="translate(-70,-30) scale(1,1)"><path fill="none" stroke="#000000" d="M 264 249 C 264 239.6111584 316.1588208 232 380.5 232 C 444.8411792 232 497 239.6111584 497 249 C 497 258.3888416 444.8411792 266 380.5 266 C 316.1588208 266 264 258.3888416 264 249 Z" stroke-miterlimit="10"/></g><g transform="translate(-70,-30) scale(1,1)"><g><path fill="none" stroke="none"/><text fill="#000000" stroke="none" font-family="Arial" font-size="13px" font-style="normal" font-weight="bold" text-decoration="none" x="307" y="256">Consulter tous les tweets</text></g></g><g transform="translate(-70,-30) scale(1,1)"><path fill="#C0C0C0" stroke="none" d="M 583 360 C 583 350.6111584 644.1131248 343 719.5 343 C 794.8868752 343 856 350.6111584 856 360 C 856 369.3888416 794.8868752 377 719.5 377 C 644.1131248 377 583 369.3888416 583 360 Z" opacity="0.2"/></g><g transform="translate(-70,-30) scale(1,1)"><path fill="#ffffff" stroke="none" d="M 576 353 C 576 343.6111584 637.1131248 336 712.5 336 C 787.8868752 336 849 343.6111584 849 353 C 849 362.3888416 787.8868752 370 712.5 370 C 637.1131248 370 576 362.3888416 576 353 Z"/></g><g transform="translate(-70,-30) scale(1,1)"><path fill="none" stroke="#000000" d="M 576 353 C 576 343.6111584 637.1131248 336 712.5 336 C 787.8868752 336 849 343.6111584 849 353 C 849 362.3888416 787.8868752 370 712.5 370 C 637.1131248 370 576 362.3888416 576 353 Z" stroke-miterlimit="10"/></g><g transform="translate(-70,-30) scale(1,1)"><g><path fill="none" stroke="none"/><text fill="#000000" stroke="none" font-family="Arial" font-size="13px" font-style="normal" font-weight="bold" text-decoration="none" x="626.5" y="360">Consulter les tweets du matin</text></g></g><g transform="translate(-70,-30) scale(1,1)"><path fill="#C0C0C0" stroke="none" d="M 471 464 C 471 454.6111584 499.8776304 447 535.5 447 C 571.1223696 447 600 454.6111584 600 464 C 600 473.3888416 571.1223696 481 535.5 481 C 499.8776304 481 471 473.3888416 471 464 Z" opacity="0.2"/></g><g transform="translate(-70,-30) scale(1,1)"><path fill="#ffffff" stroke="none" d="M 464 457 C 464 447.6111584 492.8776304 440 528.5 440 C 564.1223696 440 593 447.6111584 593 457 C 593 466.3888416 564.1223696 474 528.5 474 C 492.8776304 474 464 466.3888416 464 457 Z"/></g><g transform="translate(-70,-30) scale(1,1)"><path fill="none" stroke="#000000" d="M 464 457 C 464 447.6111584 492.8776304 440 528.5 440 C 564.1223696 440 593 447.6111584 593 457 C 593 466.3888416 564.1223696 474 528.5 474 C 492.8776304 474 464 466.3888416 464 457 Z" stroke-miterlimit="10"/></g><g transform="translate(-70,-30) scale(1,1)"><g><path fill="none" stroke="none"/><text fill="#000000" stroke="none" font-family="Arial" font-size="13px" font-style="normal" font-weight="bold" text-decoration="none" x="491" y="464">S'authentifier</text></g></g><g transform="translate(-70,-30) scale(1,1)"><path fill="none" stroke="#000000" d="M 136 247 L 263 248" stroke-miterlimit="10"/></g><g transform="translate(-70,-30) scale(1,1)"><path fill="none" stroke="#000000" d="M 393 267 L 515 439" stroke-miterlimit="10" stroke-dasharray="3"/></g><g transform="translate(-70,-30) scale(1,1)"><path fill="none" stroke="#000000" d="M 505.68695078988355 433.14618804453465 L 515 439 L 512.5539498795031 428.2754096205022" stroke-miterlimit="10"/></g><g transform="translate(-70,-30) scale(1,1)"><g><path fill="none" stroke="none"/><text fill="#000000" stroke="none" font-family="Arial" font-size="13px" font-style="normal" font-weight="normal" text-decoration="none" x="450.5" y="341.5">«include»</text></g></g><g transform="translate(-70,-30) scale(1,1)"><path fill="none" stroke="#000000" d="M 586 131 L 411 231" stroke-miterlimit="10"/></g><g transform="translate(-70,-30) scale(1,1)"><path fill="#FFFFFF" stroke="none" d="M 424.47033416061765 213.6060327239213 L 411 231 L 432.8243568424737 228.2255724171694"/></g><g transform="translate(-70,-30) scale(1,1)"><path fill="none" stroke="#000000" d="M 424.47033416061765 213.6060327239213 L 411 231 L 432.8243568424737 228.2255724171694 L 424.47033416061765 213.6060327239213" stroke-miterlimit="10"/></g><g transform="translate(-70,-30) scale(1,1)"><path fill="none" stroke="#000000" d="M 655 335 L 437 267" stroke-miterlimit="10"/></g><g transform="translate(-70,-30) scale(1,1)"><path fill="#FFFFFF" stroke="none" d="M 458.91029315897424 265.0152950627846 L 437 267 L 453.8963151902553 281.0895185507365"/></g><g transform="translate(-70,-30) scale(1,1)"><path fill="none" stroke="#000000" d="M 458.91029315897424 265.0152950627846 L 437 267 L 453.8963151902553 281.0895185507365 L 458.91029315897424 265.0152950627846" stroke-miterlimit="10"/></g><g transform="translate(-70,-30) scale(1,1)"><path fill="#C0C0C0" stroke="none" d="M 359 568 C 359 558.6111584 411.1588208 551 475.5 551 C 539.8411791999999 551 592 558.6111584 592 568 C 592 577.3888416 539.8411791999999 585 475.5 585 C 411.1588208 585 359 577.3888416 359 568 Z" opacity="0.2"/></g><g transform="translate(-70,-30) scale(1,1)"><path fill="#ffffff" stroke="none" d="M 352 561 C 352 551.6111584 404.1588208 544 468.5 544 C 532.8411791999999 544 585 551.6111584 585 561 C 585 570.3888416 532.8411791999999 578 468.5 578 C 404.1588208 578 352 570.3888416 352 561 Z"/></g><g transform="translate(-70,-30) scale(1,1)"><path fill="none" stroke="#000000" d="M 352 561 C 352 551.6111584 404.1588208 544 468.5 544 C 532.8411791999999 544 585 551.6111584 585 561 C 585 570.3888416 532.8411791999999 578 468.5 578 C 404.1588208 578 352 570.3888416 352 561 Z" stroke-miterlimit="10"/></g><g transform="translate(-70,-30) scale(1,1)"><g><path fill="none" stroke="none"/><text fill="#000000" stroke="none" font-family="Arial" font-size="13px" font-style="normal" font-weight="bold" text-decoration="none" x="394.5" y="568">Récupérer tout les tweets</text></g></g><g transform="translate(-70,-30) scale(1,1)"><path fill="none" stroke="#000000" d="M 447 543 L 136 272" stroke-miterlimit="10"/></g><g transform="translate(-70,-30) scale(1,1)"><path fill="none" stroke="#000000" d="M 586 561 L 975 562" stroke-miterlimit="10"/></g><g transform="translate(-70,-30) scale(1,1)"><path fill="none" stroke="#000000" d="M 498 238 L 975 192" stroke-miterlimit="10"/></g></g></svg>