<svg version="1.1" xmlns="http://www.w3.org/2000/svg" xmlns:xlink="http://www.w3.org/1999/xlink" width="979" height="836"><defs/><g><g transform="translate(-110,-6) scale(1,1)"><rect fill="#C0C0C0" stroke="none" x="151" y="79" width="111.60000000000002" height="15" opacity="0.2"/></g><g transform="translate(-110,-6) scale(1,1)"><rect fill="#C0C0C0" stroke="none" x="151" y="93" width="279" height="129" opacity="0.2"/></g><g transform="translate(-110,-6) scale(1,1)"><rect fill="#ffffff" stroke="none" x="144" y="87" width="279" height="128"/></g><g transform="translate(-110,-6) scale(1,1)"><path fill="none" stroke="#000000" d="M 144 87 L 423 87 L 423 215 L 144 215 L 144 87 Z Z" stroke-miterlimit="10"/></g><g transform="translate(-110,-6) scale(1,1)"><rect fill="#ffffff" stroke="none" x="144" y="72" width="111.6" height="15"/></g><g transform="translate(-110,-6) scale(1,1)"><path fill="none" stroke="#000000" d="M 144 72 L 255.6 72 L 255.6 87 L 144 87 L 144 72 Z Z" stroke-miterlimit="10"/></g><g transform="translate(-110,-6) scale(1,1)"><rect fill="#ffffff" stroke="none" x="144" y="86" width="279" height="129"/></g><g transform="translate(-110,-6) scale(1,1)"><path fill="none" stroke="#000000" d="M 144 86 L 423 86 L 423 215 L 144 215 L 144 86 Z Z" stroke-miterlimit="10"/></g><g transform="translate(-110,-6) scale(1,1)"><g><path fill="none" stroke="none"/><text fill="#000000" stroke="none" font-family="Arial" font-size="13px" font-style="normal" font-weight="bold" text-decoration="none" x="238.5" y="106.5">Authentification</text></g></g><g transform="translate(-110,-6) scale(1,1)"><rect fill="#C0C0C0" stroke="none" x="183" y="143" width="222" height="57" opacity="0.2"/></g><g transform="translate(-110,-6) scale(1,1)"><rect fill="#ffffff" stroke="none" x="176" y="136" width="222" height="57"/></g><g transform="translate(-110,-6) scale(1,1)"><path fill="none" stroke="#000000" d="M 176 136 L 398 136 L 398 193 L 176 193 L 176 136 Z Z" stroke-miterlimit="10"/></g><g transform="translate(-110,-6) scale(1,1)"><path fill="none" stroke="#000000" d="M 176 161 L 398 161" stroke-miterlimit="10"/></g><g transform="translate(-110,-6) scale(1,1)"><path fill="none" stroke="#000000" d="M 176 171 L 398 171" stroke-miterlimit="10"/></g><g transform="translate(-110,-6) scale(1,1)"><g><path fill="none" stroke="none"/><text fill="#000000" stroke="none" font-family="Arial" font-size="13px" font-style="normal" font-weight="bold" text-decoration="none" x="212.5" y="155.5">Authentification Controller</text></g></g><g transform="translate(-110,-6) scale(1,1)"><g><path fill="none" stroke="none"/><text fill="#000000" stroke="none" font-family="Arial" font-size="13px" font-style="normal" font-weight="normal" text-decoration="none" x="181" y="188.5">+checkConnection(password: String)</text></g></g><g transform="translate(-110,-6) scale(1,1)"><rect fill="#C0C0C0" stroke="none" x="599" y="23" width="194.79999999999995" height="15" opacity="0.2"/></g><g transform="translate(-110,-6) scale(1,1)"><rect fill="#C0C0C0" stroke="none" x="599" y="37" width="487" height="369" opacity="0.2"/></g><g transform="translate(-110,-6) scale(1,1)"><rect fill="#ffffff" stroke="none" x="592" y="31" width="487" height="368"/></g><g transform="translate(-110,-6) scale(1,1)"><path fill="none" stroke="#000000" d="M 592 31 L 1079 31 L 1079 399 L 592 399 L 592 31 Z Z" stroke-miterlimit="10"/></g><g transform="translate(-110,-6) scale(1,1)"><rect fill="#ffffff" stroke="none" x="592" y="16" width="194.79999999999995" height="15"/></g><g transform="translate(-110,-6) scale(1,1)"><path fill="none" stroke="#000000" d="M 592 16 L 786.8 16 L 786.8 31 L 592 31 L 592 16 Z Z" stroke-miterlimit="10"/></g><g transform="translate(-110,-6) scale(1,1)"><rect fill="#ffffff" stroke="none" x="592" y="30" width="487" height="369"/></g><g transform="translate(-110,-6) scale(1,1)"><path fill="none" stroke="#000000" d="M 592 30 L 1079 30 L 1079 399 L 592 399 L 592 30 Z Z" stroke-miterlimit="10"/></g><g transform="translate(-110,-6) scale(1,1)"><g><path fill="none" stroke="none"/><text fill="#000000" stroke="none" font-family="Arial" font-size="13px" font-style="normal" font-weight="bold" text-decoration="none" x="792" y="50.5">TweetScrapper</text></g></g><g transform="translate(-110,-6) scale(1,1)"><rect fill="#C0C0C0" stroke="none" x="607" y="71" width="373" height="220" opacity="0.2"/></g><g transform="translate(-110,-6) scale(1,1)"><rect fill="#ffffff" stroke="none" x="600" y="64" width="373" height="220"/></g><g transform="translate(-110,-6) scale(1,1)"><path fill="none" stroke="#000000" d="M 600 64 L 973 64 L 973 284 L 600 284 L 600 64 Z Z" stroke-miterlimit="10"/></g><g transform="translate(-110,-6) scale(1,1)"><path fill="none" stroke="#000000" d="M 600 89 L 973 89" stroke-miterlimit="10"/></g><g transform="translate(-110,-6) scale(1,1)"><path fill="none" stroke="#000000" d="M 600 157 L 973 157" stroke-miterlimit="10"/></g><g transform="translate(-110,-6) scale(1,1)"><g><path fill="none" stroke="none"/><text fill="#000000" stroke="none" font-family="Arial" font-size="13px" font-style="normal" font-weight="bold" text-decoration="none" x="729.5" y="83.5">ScraperServiceImpl</text></g></g><g transform="translate(-110,-6) scale(1,1)"><g><path fill="none" stroke="none"/><text fill="#000000" stroke="none" font-family="Arial" font-size="13px" font-style="normal" font-weight="normal" text-decoration="none" x="605" y="106.5">+statusRepository: StatusRepository</text></g></g><g transform="translate(-110,-6) scale(1,1)"><g><path fill="none" stroke="none"/><text fill="#000000" stroke="none" font-family="Arial" font-size="13px" font-style="normal" font-weight="normal" text-decoration="none" x="605" y="121.5">+twitterStream: TwitterStream</text></g></g><g transform="translate(-110,-6) scale(1,1)"><g><path fill="none" stroke="none"/><text fill="#000000" stroke="none" font-family="Arial" font-size="13px" font-style="normal" font-weight="normal" text-decoration="none" x="605" y="136.5">+twitter: Twitter</text></g></g><g transform="translate(-110,-6) scale(1,1)"><g><path fill="none" stroke="none"/><text fill="#000000" stroke="none" font-family="Arial" font-size="13px" font-style="normal" font-weight="normal" text-decoration="none" x="605" y="151.5">+trends: Trend</text></g></g><g transform="translate(-110,-6) scale(1,1)"><g><path fill="none" stroke="none"/><text fill="#000000" stroke="none" font-family="Arial" font-size="13px" font-style="normal" font-weight="normal" text-decoration="none" x="605" y="174.5">+getTrends(): Trends</text></g></g><g transform="translate(-110,-6) scale(1,1)"><g><path fill="none" stroke="none"/><text fill="#000000" stroke="none" font-family="Arial" font-size="13px" font-style="normal" font-weight="normal" text-decoration="none" x="605" y="189.5">+saveStatuses(): void</text></g></g><g transform="translate(-110,-6) scale(1,1)"><g><path fill="none" stroke="none"/><text fill="#000000" stroke="none" font-family="Arial" font-size="13px" font-style="normal" font-weight="normal" text-decoration="none" x="605" y="204.5">+onDeletionNotice(statusDeletionNotice: StatusDeletionNotice)</text></g></g><g transform="translate(-110,-6) scale(1,1)"><g><path fill="none" stroke="none"/><text fill="#000000" stroke="none" font-family="Arial" font-size="13px" font-style="normal" font-weight="normal" text-decoration="none" x="605" y="219.5">+onTrackLimitationNotice(i: int)</text></g></g><g transform="translate(-110,-6) scale(1,1)"><g><path fill="none" stroke="none"/><text fill="#000000" stroke="none" font-family="Arial" font-size="13px" font-style="normal" font-weight="normal" text-decoration="none" x="605" y="234.5">+onScrubGeo(l: long, l1: long)</text></g></g><g transform="translate(-110,-6) scale(1,1)"><g><path fill="none" stroke="none"/><text fill="#000000" stroke="none" font-family="Arial" font-size="13px" font-style="normal" font-weight="normal" text-decoration="none" x="605" y="249.5">+onStallWarning(stallWarning : StallWarning)</text></g></g><g transform="translate(-110,-6) scale(1,1)"><g><path fill="none" stroke="none"/><text fill="#000000" stroke="none" font-family="Arial" font-size="13px" font-style="normal" font-weight="normal" text-decoration="none" x="605" y="264.5">+onException(e: Exception)</text></g></g><g transform="translate(-110,-6) scale(1,1)"><g><path fill="none" stroke="none"/><text fill="#000000" stroke="none" font-family="Arial" font-size="13px" font-style="normal" font-weight="normal" text-decoration="none" x="605" y="279.5">+getTrendQueries(): String</text></g></g><g transform="translate(-110,-6) scale(1,1)"><rect fill="#C0C0C0" stroke="none" x="927" y="319" width="124" height="72" opacity="0.2"/></g><g transform="translate(-110,-6) scale(1,1)"><rect fill="#ffffff" stroke="none" x="920" y="312" width="124" height="72"/></g><g transform="translate(-110,-6) scale(1,1)"><path fill="none" stroke="#000000" d="M 920 312 L 1044 312 L 1044 384 L 920 384 L 920 312 Z Z" stroke-miterlimit="10"/></g><g transform="translate(-110,-6) scale(1,1)"><path fill="none" stroke="#000000" d="M 920 337 L 1044 337" stroke-miterlimit="10"/></g><g transform="translate(-110,-6) scale(1,1)"><path fill="none" stroke="#000000" d="M 920 347 L 1044 347" stroke-miterlimit="10"/></g><g transform="translate(-110,-6) scale(1,1)"><g><path fill="none" stroke="none"/><text fill="#000000" stroke="none" font-family="Arial" font-size="13px" font-style="normal" font-weight="bold" text-decoration="none" x="935.5" y="331.5">Scraper Service</text></g></g><g transform="translate(-110,-6) scale(1,1)"><g><path fill="none" stroke="none"/><text fill="#000000" stroke="none" font-family="Arial" font-size="13px" font-style="normal" font-weight="normal" text-decoration="none" x="925" y="364.5">+getTrends(): Trend</text></g></g><g transform="translate(-110,-6) scale(1,1)"><g><path fill="none" stroke="none"/><text fill="#000000" stroke="none" font-family="Arial" font-size="13px" font-style="normal" font-weight="normal" text-decoration="none" x="925" y="379.5">+saveStatuses()</text></g></g><g transform="translate(-110,-6) scale(1,1)"><rect fill="#C0C0C0" stroke="none" x="127" y="423" width="265.6" height="15" opacity="0.2"/></g><g transform="translate(-110,-6) scale(1,1)"><rect fill="#C0C0C0" stroke="none" x="127" y="437" width="664" height="402" opacity="0.2"/></g><g transform="translate(-110,-6) scale(1,1)"><rect fill="#ffffff" stroke="none" x="120" y="431" width="664" height="401"/></g><g transform="translate(-110,-6) scale(1,1)"><path fill="none" stroke="#000000" d="M 120 431 L 784 431 L 784 832 L 120 832 L 120 431 Z Z" stroke-miterlimit="10"/></g><g transform="translate(-110,-6) scale(1,1)"><rect fill="#ffffff" stroke="none" x="120" y="416" width="265.6" height="15"/></g><g transform="translate(-110,-6) scale(1,1)"><path fill="none" stroke="#000000" d="M 120 416 L 385.6 416 L 385.6 431 L 120 431 L 120 416 Z Z" stroke-miterlimit="10"/></g><g transform="translate(-110,-6) scale(1,1)"><rect fill="#ffffff" stroke="none" x="120" y="430" width="664" height="402"/></g><g transform="translate(-110,-6) scale(1,1)"><path fill="none" stroke="#000000" d="M 120 430 L 784 430 L 784 832 L 120 832 L 120 430 Z Z" stroke-miterlimit="10"/></g><g transform="translate(-110,-6) scale(1,1)"><g><path fill="none" stroke="none"/><text fill="#000000" stroke="none" font-family="Arial" font-size="13px" font-style="normal" font-weight="bold" text-decoration="none" x="412.5" y="450.5">TweetService</text></g></g><g transform="translate(-110,-6) scale(1,1)"><rect fill="#C0C0C0" stroke="none" x="159" y="479" width="204" height="57" opacity="0.2"/></g><g transform="translate(-110,-6) scale(1,1)"><rect fill="#ffffff" stroke="none" x="152" y="472" width="204" height="57"/></g><g transform="translate(-110,-6) scale(1,1)"><path fill="none" stroke="#000000" d="M 152 472 L 356 472 L 356 529 L 152 529 L 152 472 Z Z" stroke-miterlimit="10"/></g><g transform="translate(-110,-6) scale(1,1)"><path fill="none" stroke="#000000" d="M 152 497 L 356 497" stroke-miterlimit="10"/></g><g transform="translate(-110,-6) scale(1,1)"><path fill="none" stroke="#000000" d="M 152 507 L 356 507" stroke-miterlimit="10"/></g><g transform="translate(-110,-6) scale(1,1)"><g><path fill="none" stroke="none"/><text fill="#000000" stroke="none" font-family="Arial" font-size="13px" font-style="normal" font-weight="bold" text-decoration="none" x="206.5" y="491.5">TrendRepository</text></g></g><g transform="translate(-110,-6) scale(1,1)"><g><path fill="none" stroke="none"/><text fill="#000000" stroke="none" font-family="Arial" font-size="13px" font-style="normal" font-weight="normal" text-decoration="none" x="157" y="524.5">+checkTrendExists(name: String)</text></g></g><g transform="translate(-110,-6) scale(1,1)"><rect fill="#C0C0C0" stroke="none" x="423" y="487" width="119" height="44" opacity="0.2"/></g><g transform="translate(-110,-6) scale(1,1)"><rect fill="#ffffff" stroke="none" x="416" y="480" width="119" height="44"/></g><g transform="translate(-110,-6) scale(1,1)"><path fill="none" stroke="#000000" d="M 416 480 L 535 480 L 535 524 L 416 524 L 416 480 Z Z" stroke-miterlimit="10"/></g><g transform="translate(-110,-6) scale(1,1)"><path fill="none" stroke="#000000" d="M 416 505 L 535 505" stroke-miterlimit="10"/></g><g transform="translate(-110,-6) scale(1,1)"><path fill="none" stroke="#000000" d="M 416 515 L 535 515" stroke-miterlimit="10"/></g><g transform="translate(-110,-6) scale(1,1)"><g><path fill="none" stroke="none"/><text fill="#000000" stroke="none" font-family="Arial" font-size="13px" font-style="normal" font-weight="bold" text-decoration="none" x="423.5" y="499.5">Status Repository</text></g></g><g transform="translate(-110,-6) scale(1,1)"><rect fill="#C0C0C0" stroke="none" x="159" y="591" width="187" height="70" opacity="0.2"/></g><g transform="translate(-110,-6) scale(1,1)"><rect fill="#ffffff" stroke="none" x="152" y="584" width="187" height="70"/></g><g transform="translate(-110,-6) scale(1,1)"><path fill="none" stroke="#000000" d="M 152 584 L 339 584 L 339 654 L 152 654 L 152 584 Z Z" stroke-miterlimit="10"/></g><g transform="translate(-110,-6) scale(1,1)"><path fill="none" stroke="#000000" d="M 152 609 L 339 609" stroke-miterlimit="10"/></g><g transform="translate(-110,-6) scale(1,1)"><path fill="none" stroke="#000000" d="M 152 632 L 339 632" stroke-miterlimit="10"/></g><g transform="translate(-110,-6) scale(1,1)"><g><path fill="none" stroke="none"/><text fill="#000000" stroke="none" font-family="Arial" font-size="13px" font-style="normal" font-weight="bold" text-decoration="none" x="197" y="603.5">Status Controller</text></g></g><g transform="translate(-110,-6) scale(1,1)"><g><path fill="none" stroke="none"/><text fill="#000000" stroke="none" font-family="Arial" font-size="13px" font-style="normal" font-weight="normal" text-decoration="none" x="157" y="626.5">+statusService: StatusService</text></g></g><g transform="translate(-110,-6) scale(1,1)"><g><path fill="none" stroke="none"/><text fill="#000000" stroke="none" font-family="Arial" font-size="13px" font-style="normal" font-weight="normal" text-decoration="none" x="157" y="649.5">+hello(): list&lt;Status&gt;</text></g></g><g transform="translate(-110,-6) scale(1,1)"><rect fill="#C0C0C0" stroke="none" x="391" y="599" width="203" height="70" opacity="0.2"/></g><g transform="translate(-110,-6) scale(1,1)"><rect fill="#ffffff" stroke="none" x="384" y="592" width="203" height="70"/></g><g transform="translate(-110,-6) scale(1,1)"><path fill="none" stroke="#000000" d="M 384 592 L 587 592 L 587 662 L 384 662 L 384 592 Z Z" stroke-miterlimit="10"/></g><g transform="translate(-110,-6) scale(1,1)"><path fill="none" stroke="#000000" d="M 384 617 L 587 617" stroke-miterlimit="10"/></g><g transform="translate(-110,-6) scale(1,1)"><path fill="none" stroke="#000000" d="M 384 640 L 587 640" stroke-miterlimit="10"/></g><g transform="translate(-110,-6) scale(1,1)"><g><path fill="none" stroke="none"/><text fill="#000000" stroke="none" font-family="Arial" font-size="13px" font-style="normal" font-weight="bold" text-decoration="none" x="441.5" y="611.5">TrendController</text></g></g><g transform="translate(-110,-6) scale(1,1)"><g><path fill="none" stroke="none"/><text fill="#000000" stroke="none" font-family="Arial" font-size="13px" font-style="normal" font-weight="normal" text-decoration="none" x="389" y="634.5">+trendService: TrendService</text></g></g><g transform="translate(-110,-6) scale(1,1)"><g><path fill="none" stroke="none"/><text fill="#000000" stroke="none" font-family="Arial" font-size="13px" font-style="normal" font-weight="normal" text-decoration="none" x="389" y="657.5">+getTrendingTopic(): list &lt;Trend&gt;</text></g></g><g transform="translate(-110,-6) scale(1,1)"><rect fill="#C0C0C0" stroke="none" x="647" y="455" width="102" height="102" opacity="0.2"/></g><g transform="translate(-110,-6) scale(1,1)"><rect fill="#ffffff" stroke="none" x="640" y="448" width="102" height="102"/></g><g transform="translate(-110,-6) scale(1,1)"><path fill="none" stroke="#000000" d="M 640 448 L 742 448 L 742 550 L 640 550 L 640 448 Z Z" stroke-miterlimit="10"/></g><g transform="translate(-110,-6) scale(1,1)"><path fill="none" stroke="#000000" d="M 640 473 L 742 473" stroke-miterlimit="10"/></g><g transform="translate(-110,-6) scale(1,1)"><path fill="none" stroke="#000000" d="M 640 541 L 742 541" stroke-miterlimit="10"/></g><g transform="translate(-110,-6) scale(1,1)"><g><path fill="none" stroke="none"/><text fill="#000000" stroke="none" font-family="Arial" font-size="13px" font-style="normal" font-weight="bold" text-decoration="none" x="672" y="467.5">Status</text></g></g><g transform="translate(-110,-6) scale(1,1)"><g><path fill="none" stroke="none"/><text fill="#000000" stroke="none" font-family="Arial" font-size="13px" font-style="normal" font-weight="normal" text-decoration="none" x="645" y="490.5">+status_id: long</text></g></g><g transform="translate(-110,-6) scale(1,1)"><g><path fill="none" stroke="none"/><text fill="#000000" stroke="none" font-family="Arial" font-size="13px" font-style="normal" font-weight="normal" text-decoration="none" x="645" y="505.5">+createAt: Date</text></g></g><g transform="translate(-110,-6) scale(1,1)"><g><path fill="none" stroke="none"/><text fill="#000000" stroke="none" font-family="Arial" font-size="13px" font-style="normal" font-weight="normal" text-decoration="none" x="645" y="520.5">+text: String</text></g></g><g transform="translate(-110,-6) scale(1,1)"><g><path fill="none" stroke="none"/><text fill="#000000" stroke="none" font-family="Arial" font-size="13px" font-style="normal" font-weight="normal" text-decoration="none" x="645" y="535.5">+user: User</text></g></g><g transform="translate(-110,-6) scale(1,1)"><rect fill="#C0C0C0" stroke="none" x="183" y="711" width="144" height="57" opacity="0.2"/></g><g transform="translate(-110,-6) scale(1,1)"><rect fill="#ffffff" stroke="none" x="176" y="704" width="144" height="57"/></g><g transform="translate(-110,-6) scale(1,1)"><path fill="none" stroke="#000000" d="M 176 704 L 320 704 L 320 761 L 176 761 L 176 704 Z Z" stroke-miterlimit="10"/></g><g transform="translate(-110,-6) scale(1,1)"><path fill="none" stroke="#000000" d="M 176 729 L 320 729" stroke-miterlimit="10"/></g><g transform="translate(-110,-6) scale(1,1)"><path fill="none" stroke="#000000" d="M 176 739 L 320 739" stroke-miterlimit="10"/></g><g transform="translate(-110,-6) scale(1,1)"><g><path fill="none" stroke="none"/><text fill="#000000" stroke="none" font-family="Arial" font-size="13px" font-style="normal" font-weight="bold" text-decoration="none" x="205" y="723.5">Status Service</text></g></g><g transform="translate(-110,-6) scale(1,1)"><g><path fill="none" stroke="none"/><text fill="#000000" stroke="none" font-family="Arial" font-size="13px" font-style="normal" font-weight="normal" text-decoration="none" x="181" y="756.5">+findAll(): List&lt;Status&gt;</text></g></g><g transform="translate(-110,-6) scale(1,1)"><rect fill="#C0C0C0" stroke="none" x="415" y="727" width="91" height="72" opacity="0.2"/></g><g transform="translate(-110,-6) scale(1,1)"><rect fill="#ffffff" stroke="none" x="408" y="720" width="91" height="72"/></g><g transform="translate(-110,-6) scale(1,1)"><path fill="none" stroke="#000000" d="M 408 720 L 499 720 L 499 792 L 408 792 L 408 720 Z Z" stroke-miterlimit="10"/></g><g transform="translate(-110,-6) scale(1,1)"><path fill="none" stroke="#000000" d="M 408 745 L 499 745" stroke-miterlimit="10"/></g><g transform="translate(-110,-6) scale(1,1)"><path fill="none" stroke="#000000" d="M 408 783 L 499 783" stroke-miterlimit="10"/></g><g transform="translate(-110,-6) scale(1,1)"><g><path fill="none" stroke="none"/><text fill="#000000" stroke="none" font-family="Arial" font-size="13px" font-style="normal" font-weight="bold" text-decoration="none" x="437" y="739.5">Trend</text></g></g><g transform="translate(-110,-6) scale(1,1)"><g><path fill="none" stroke="none"/><text fill="#000000" stroke="none" font-family="Arial" font-size="13px" font-style="normal" font-weight="normal" text-decoration="none" x="413" y="762.5">+id: long</text></g></g><g transform="translate(-110,-6) scale(1,1)"><g><path fill="none" stroke="none"/><text fill="#000000" stroke="none" font-family="Arial" font-size="13px" font-style="normal" font-weight="normal" text-decoration="none" x="413" y="777.5">+name: String</text></g></g><g transform="translate(-110,-6) scale(1,1)"><rect fill="#C0C0C0" stroke="none" x="623" y="719" width="139" height="102" opacity="0.2"/></g><g transform="translate(-110,-6) scale(1,1)"><rect fill="#ffffff" stroke="none" x="616" y="712" width="139" height="102"/></g><g transform="translate(-110,-6) scale(1,1)"><path fill="none" stroke="#000000" d="M 616 712 L 755 712 L 755 814 L 616 814 L 616 712 Z Z" stroke-miterlimit="10"/></g><g transform="translate(-110,-6) scale(1,1)"><path fill="none" stroke="#000000" d="M 616 737 L 755 737" stroke-miterlimit="10"/></g><g transform="translate(-110,-6) scale(1,1)"><path fill="none" stroke="#000000" d="M 616 805 L 755 805" stroke-miterlimit="10"/></g><g transform="translate(-110,-6) scale(1,1)"><g><path fill="none" stroke="none"/><text fill="#000000" stroke="none" font-family="Arial" font-size="13px" font-style="normal" font-weight="bold" text-decoration="none" x="672" y="731.5">User</text></g></g><g transform="translate(-110,-6) scale(1,1)"><g><path fill="none" stroke="none"/><text fill="#000000" stroke="none" font-family="Arial" font-size="13px" font-style="normal" font-weight="normal" text-decoration="none" x="621" y="754.5">+id: long</text></g></g><g transform="translate(-110,-6) scale(1,1)"><g><path fill="none" stroke="none"/><text fill="#000000" stroke="none" font-family="Arial" font-size="13px" font-style="normal" font-weight="normal" text-decoration="none" x="621" y="769.5">+name: String</text></g></g><g transform="translate(-110,-6) scale(1,1)"><g><path fill="none" stroke="none"/><text fill="#000000" stroke="none" font-family="Arial" font-size="13px" font-style="normal" font-weight="normal" text-decoration="none" x="621" y="784.5">+screenName: String</text></g></g><g transform="translate(-110,-6) scale(1,1)"><g><path fill="none" stroke="none"/><text fill="#000000" stroke="none" font-family="Arial" font-size="13px" font-style="normal" font-weight="normal" text-decoration="none" x="621" y="799.5">+profilImageUrl: String</text></g></g></g></svg>