<svg version="1.1" xmlns="http://www.w3.org/2000/svg" xmlns:xlink="http://www.w3.org/1999/xlink" width="959" height="614"><defs/><g><g transform="translate(-6,5) scale(1,1)"><path fill="none" stroke="#000000" d="M 16 5 L 955 5 L 955 599 L 16 599 L 16 5" stroke-miterlimit="10"/></g><g transform="translate(-6,5) scale(1,1)"><path fill="#ffffff" stroke="none" d="M 16 5 L 16 27 L 230 27 L 241 16 L 241 5 L 16 5"/></g><g transform="translate(-6,5) scale(1,1)"><path fill="none" stroke="#000000" d="M 16 5 L 16 27 L 230 27 L 241 16 L 241 5 L 16 5 L 16 5" stroke-miterlimit="10"/></g><g transform="translate(-6,5) scale(1,1)"><g><path fill="none" stroke="none"/><text fill="#000000" stroke="none" font-family="Arial" font-size="13px" font-style="normal" font-weight="normal" text-decoration="none" x="87" y="22.5">SequenceTweetScraper</text></g></g><g transform="translate(-6,5) scale(1,1)"><g><path fill="none" stroke="none"/><text fill="#000000" stroke="none" font-family="Arial" font-size="13px" font-style="normal" font-weight="bold" text-decoration="none" x="21" y="22.5">interaction</text></g></g><g transform="translate(-6,5) scale(1,1)"><rect fill="#C0C0C0" stroke="none" x="255" y="47" width="103" height="39" opacity="0.2"/></g><g transform="translate(-6,5) scale(1,1)"><rect fill="#ffffff" stroke="none" x="248" y="40" width="103" height="39"/></g><g transform="translate(-6,5) scale(1,1)"><path fill="none" stroke="#000000" d="M 248 40 L 351 40 L 351 79 L 248 79 L 248 40 Z Z" stroke-miterlimit="10"/></g><g transform="translate(-6,5) scale(1,1)"><g><path fill="none" stroke="none"/><text fill="#000000" stroke="none" font-family="Arial" font-size="13px" font-style="normal" font-weight="bold" text-decoration="none" x="267.5" y="59.5">Application</text></g></g><g transform="translate(-6,5) scale(1,1)"><path fill="none" stroke="#000000" d="M 300.5 80 L 300.5 576" stroke-miterlimit="10" stroke-dasharray="3"/></g><g transform="translate(-6,5) scale(1,1)"><rect fill="#C0C0C0" stroke="none" x="471" y="47" width="105" height="39" opacity="0.2"/></g><g transform="translate(-6,5) scale(1,1)"><rect fill="#ffffff" stroke="none" x="464" y="40" width="105" height="39"/></g><g transform="translate(-6,5) scale(1,1)"><path fill="none" stroke="#000000" d="M 464 40 L 569 40 L 569 79 L 464 79 L 464 40 Z Z" stroke-miterlimit="10"/></g><g transform="translate(-6,5) scale(1,1)"><g><path fill="none" stroke="none"/><text fill="#000000" stroke="none" font-family="Arial" font-size="13px" font-style="normal" font-weight="bold" text-decoration="none" x="476" y="59.5">TwitterStream</text></g></g><g transform="translate(-6,5) scale(1,1)"><path fill="none" stroke="#000000" d="M 517.5 80 L 517.5 576" stroke-miterlimit="10" stroke-dasharray="3"/></g><g transform="translate(-6,5) scale(1,1)"><rect fill="#C0C0C0" stroke="none" x="87" y="47" width="75" height="39" opacity="0.2"/></g><g transform="translate(-6,5) scale(1,1)"><rect fill="#ffffff" stroke="none" x="80" y="40" width="75" height="39"/></g><g transform="translate(-6,5) scale(1,1)"><path fill="none" stroke="#000000" d="M 80 40 L 155 40 L 155 79 L 80 79 L 80 40 Z Z" stroke-miterlimit="10"/></g><g transform="translate(-6,5) scale(1,1)"><g><path fill="none" stroke="none"/><text fill="#000000" stroke="none" font-family="Arial" font-size="13px" font-style="normal" font-weight="bold" text-decoration="none" x="90" y="59.5">Database</text></g></g><g transform="translate(-6,5) scale(1,1)"><path fill="none" stroke="#000000" d="M 118.5 80 L 118.5 576" stroke-miterlimit="10" stroke-dasharray="3"/></g><g transform="translate(-6,5) scale(1,1)"><rect fill="#C0C0C0" stroke="none" x="671" y="47" width="72" height="39" opacity="0.2"/></g><g transform="translate(-6,5) scale(1,1)"><rect fill="#ffffff" stroke="none" x="664" y="40" width="72" height="39"/></g><g transform="translate(-6,5) scale(1,1)"><path fill="none" stroke="#000000" d="M 664 40 L 736 40 L 736 79 L 664 79 L 664 40 Z Z" stroke-miterlimit="10"/></g><g transform="translate(-6,5) scale(1,1)"><g><path fill="none" stroke="none"/><text fill="#000000" stroke="none" font-family="Arial" font-size="13px" font-style="normal" font-weight="bold" text-decoration="none" x="680.5" y="59.5">Twitter</text></g></g><g transform="translate(-6,5) scale(1,1)"><path fill="none" stroke="#000000" d="M 701.5 80 L 701.5 576" stroke-miterlimit="10" stroke-dasharray="3"/></g><g transform="translate(-6,5) scale(1,1)"><path fill="none" stroke="#000000" d="M 300 120 L 510 120" stroke-miterlimit="10"/></g><g transform="translate(-6,5) scale(1,1)"><path fill="#000000" stroke="none" d="M 499.83732514237585 124.20951775601598 L 510 120 L 499.83732514237585 115.79048224398402"/></g><g transform="translate(-6,5) scale(1,1)"><path fill="none" stroke="#000000" d="M 499.83732514237585 124.20951775601598 L 510 120 L 499.83732514237585 115.79048224398402 L 499.83732514237585 124.20951775601598" stroke-miterlimit="10"/></g><g transform="translate(-6,5) scale(1,1)"><g><path fill="none" stroke="none"/><text fill="#000000" stroke="none" font-family="Arial" font-size="13px" font-style="normal" font-weight="normal" text-decoration="none" x="339.5" y="116.5">1 : saveStatuses(void)</text></g></g><g transform="translate(-6,5) scale(1,1)"><rect fill="#ffffff" stroke="none" x="510" y="120" width="13" height="28"/></g><g transform="translate(-6,5) scale(1,1)"><path fill="none" stroke="#000000" d="M 510 120 L 523 120 L 523 148 L 510 148 L 510 120 Z Z" stroke-miterlimit="10"/></g><g transform="translate(-6,5) scale(1,1)"><path fill="none" stroke="#000000" d="M 523 147 L 694 147" stroke-miterlimit="10"/></g><g transform="translate(-6,5) scale(1,1)"><path fill="#000000" stroke="none" d="M 683.8373251423759 151.209517756016 L 694 147 L 683.8373251423758 142.790482243984"/></g><g transform="translate(-6,5) scale(1,1)"><path fill="none" stroke="#000000" d="M 683.8373251423759 151.209517756016 L 694 147 L 683.8373251423758 142.790482243984 L 683.8373251423759 151.209517756016" stroke-miterlimit="10"/></g><g transform="translate(-6,5) scale(1,1)"><g><path fill="none" stroke="none"/><text fill="#000000" stroke="none" font-family="Arial" font-size="13px" font-style="normal" font-weight="normal" text-decoration="none" x="552.5" y="143.5">2 : getTweets(void)</text></g></g><g transform="translate(-6,5) scale(1,1)"><rect fill="#ffffff" stroke="none" x="694" y="147" width="13" height="28"/></g><g transform="translate(-6,5) scale(1,1)"><path fill="none" stroke="#000000" d="M 694 147 L 707 147 L 707 175 L 694 175 L 694 147 Z Z" stroke-miterlimit="10"/></g><g transform="translate(-6,5) scale(1,1)"><path fill="none" stroke="#000000" d="M 701 177 L 517 177" stroke-miterlimit="10" stroke-dasharray="3"/></g><g transform="translate(-6,5) scale(1,1)"><path fill="none" stroke="#000000" d="M 527.1626748576241 172.790482243984 L 517 177 L 527.1626748576241 181.209517756016" stroke-miterlimit="10"/></g><g transform="translate(-6,5) scale(1,1)"><g><path fill="none" stroke="none"/><text fill="#000000" stroke="none" font-family="Arial" font-size="13px" font-style="normal" font-weight="normal" text-decoration="none" x="550.5" y="193.5">3 : Liste des tweets</text></g></g><g transform="translate(-6,5) scale(1,1)"><path fill="none" stroke="#000000" d="M 300 272 L 124 272" stroke-miterlimit="10"/></g><g transform="translate(-6,5) scale(1,1)"><path fill="#000000" stroke="none" d="M 134.16267485762415 267.790482243984 L 124 272 L 134.16267485762415 276.209517756016"/></g><g transform="translate(-6,5) scale(1,1)"><path fill="none" stroke="#000000" d="M 134.16267485762415 267.790482243984 L 124 272 L 134.16267485762415 276.209517756016 L 134.16267485762415 267.790482243984" stroke-miterlimit="10"/></g><g transform="translate(-6,5) scale(1,1)"><g><path fill="none" stroke="none"/><text fill="#000000" stroke="none" font-family="Arial" font-size="13px" font-style="normal" font-weight="normal" text-decoration="none" x="145.5" y="288.5">5 : saveStatuses(void)</text></g></g><g transform="translate(-6,5) scale(1,1)"><rect fill="#ffffff" stroke="none" x="111" y="272" width="13" height="28"/></g><g transform="translate(-6,5) scale(1,1)"><path fill="none" stroke="#000000" d="M 111 272 L 124 272 L 124 300 L 111 300 L 111 272 Z Z" stroke-miterlimit="10"/></g><g transform="translate(-6,5) scale(1,1)"><path fill="none" stroke="#000000" d="M 517 210 L 306 210" stroke-miterlimit="10"/></g><g transform="translate(-6,5) scale(1,1)"><path fill="#000000" stroke="none" d="M 316.16267485762415 205.790482243984 L 306 210 L 316.16267485762415 214.209517756016"/></g><g transform="translate(-6,5) scale(1,1)"><path fill="none" stroke="#000000" d="M 316.16267485762415 205.790482243984 L 306 210 L 316.16267485762415 214.209517756016 L 316.16267485762415 205.790482243984" stroke-miterlimit="10"/></g><g transform="translate(-6,5) scale(1,1)"><g><path fill="none" stroke="none"/><text fill="#000000" stroke="none" font-family="Arial" font-size="13px" font-style="normal" font-weight="normal" text-decoration="none" x="348.5" y="226.5">4 : Liste des tweets</text></g></g><g transform="translate(-6,5) scale(1,1)"><rect fill="#ffffff" stroke="none" x="293" y="210" width="13" height="28"/></g><g transform="translate(-6,5) scale(1,1)"><path fill="none" stroke="#000000" d="M 293 210 L 306 210 L 306 238 L 293 238 L 293 210 Z Z" stroke-miterlimit="10"/></g></g></svg>